<?xml version="1.0" encoding="utf-8"?>
<!-- Generator: Adobe Illustrator 12.0.0, SVG Export Plug-In . SVG Version: 6.00 Build 51448)  -->
<!DOCTYPE svg PUBLIC "-//W3C//DTD SVG 1.1//EN" "http://www.w3.org/Graphics/SVG/1.1/DTD/svg11.dtd" [
	<!ENTITY ns_svg "http://www.w3.org/2000/svg">
	<!ENTITY ns_xlink "http://www.w3.org/1999/xlink">
]>
<svg  version="1.1" id="Ebene_1" xmlns="&ns_svg;" xmlns:xlink="&ns_xlink;" width="100%" height="auto"
	 viewBox="0 0 352.578 59.625" overflow="visible" enable-background="new 0 0 352.578 59.625" xml:space="preserve">
<g>
	<path fill="#4863a0" d="M16.56,49.688H0L9.216,6.25H3.023L4.319,0h22.752L16.56,49.688z"/>
	<path fill="#4863a0" d="M29.735,16.131c0.384-1.824,1.284-3.313,2.7-4.465s3.035-1.729,4.859-1.729h26.496
		c1.824,0,3.18,0.576,4.068,1.729c0.888,1.152,1.14,2.642,0.756,4.466L63.863,38.75H40.319l-1.225,5.438h23.544l-1.151,5.5H30.382
		c-2.352,0-4.092-0.708-5.22-2.124s-1.428-3.301-0.9-5.653L29.735,16.131z M45.287,15.438L41.47,33.125h8.28l3.816-17.688H45.287z"
		/>
	<path fill="#4863a0" d="M106.414,15.438H91.51l-7.345,34.25H68.83l7.128-33.557c0.384-1.824,1.284-3.313,2.7-4.465
		s3.036-1.729,4.86-1.729h24.048L106.414,15.438z"/>
	<path fill="#9D9D9D" d="M152.709,6.25h-12.384l-9.216,43.438h-16.561l9.216-43.438h-12.384L112.677,0h41.328L152.709,6.25z"/>
	<path fill="#9D9D9D" d="M172.365,9.938l-7.345,34.25h8.28l7.344-34.25h15.265L189.14,41.91c-0.528,2.353-1.656,4.237-3.384,5.653
		c-1.729,1.416-3.744,2.124-6.048,2.124h-23.4c-2.352,0-4.092-0.708-5.22-2.124s-1.428-3.301-0.9-5.653l6.841-31.973H172.365z"/>
	<path fill="#9D9D9D" d="M233.635,49.688h-15.264l7.344-34.25h-8.279l-7.345,34.25h-15.336l8.496-39.75h32.688
		c1.823,0,3.179,0.576,4.067,1.729c0.888,1.152,1.14,2.641,0.757,4.465L233.635,49.688z"/>
	<path fill="#9D9D9D" d="M254.155,49.688h-15.336l8.424-39.744h15.336L254.155,49.688z M263.515,5.5h-15.336l1.151-5.5h15.337
		L263.515,5.5z"/>
	<path fill="#9D9D9D" d="M300.234,49.688h-15.264l7.344-34.25h-8.279l-7.345,34.25h-15.336l8.496-39.75h32.688
		c1.823,0,3.179,0.576,4.067,1.729c0.888,1.152,1.14,2.641,0.757,4.465L300.234,49.688z"/>
	<path fill="#9D9D9D" d="M312.114,54.125h15.84l0.936-4.438h-15.84c-2.352,0-4.092-0.708-5.22-2.124s-1.428-3.301-0.9-5.653
		l5.473-25.779c0.384-1.824,1.271-3.313,2.664-4.465c1.392-1.152,2.999-1.729,4.823-1.729h32.688l-8.856,41.91
		c-0.528,2.352-1.656,4.236-3.384,5.653c-1.729,1.415-3.744,2.124-6.048,2.124h-23.4L312.114,54.125z M327.882,15.438l-6.12,28.75
		h8.28l6.12-28.75H327.882z"/>
</g>
</svg>
